<svg width="2500" height="173" viewBox="0 0 2500 173" fill="none" xmlns="http://www.w3.org/2000/svg">
<path d="M18.3562 61.477C24.9179 61.477 30.566 58.9678 33.9714 53.0292C36.2971 49.0143 35.9649 45.9196 35.9649 40.1483V0H24.5026V40.1483C24.5026 43.243 24.5026 45.585 23.8381 47.1742C22.7584 49.7671 19.9343 50.8545 17.8578 50.8545C14.7846 50.8545 11.6284 48.2616 11.13 45.1668L0 47.8434C2.57485 56.2076 8.80433 61.477 18.3562 61.477Z" fill="black"/>
<path d="M82.9072 0L64.6341 60.2224H76.2624L91.2132 10.7062L106.413 60.2224H118.041L99.7684 0H82.9072Z" fill="black"/>
<path d="M157.225 60.2224H168.687V35.7152L189.12 0H175.913L162.956 22.667L149.999 0H136.792L157.225 35.7152V60.2224Z" fill="black"/>
<path d="M218.181 60.2224H237.534C238.448 60.2224 241.936 60.2224 244.677 59.8878C259.129 58.1313 267.186 45.4177 267.186 30.1112C267.186 14.8047 259.129 2.09105 244.677 0.33457C241.936 0 238.448 0 237.534 0H218.181V60.2224ZM229.643 49.5162V10.7062H237.534C239.029 10.7062 241.936 10.7062 244.013 11.1244C251.571 12.63 255.226 21.0778 255.226 30.1112C255.226 38.7264 251.82 47.5088 244.013 49.098C241.936 49.5162 239.029 49.5162 237.534 49.5162H229.643Z" fill="black"/>
<path d="M300.407 10.6226H349.744V0H300.407V10.6226ZM300.407 60.2224H349.744V49.5998H300.407V60.2224ZM300.407 35.3807H349.744V24.7581H300.407V35.3807Z" fill="black"/>
<path d="M384.661 60.2224H395.957V10.6226H422.702V60.2224H433.998V0H384.661V60.2224Z" fill="black"/>
<path d="M269.974 173C282.184 173 293.978 166.81 293.978 153.846C293.978 141.718 283.596 138.707 277.449 137.034L267.067 134.19C263.246 133.186 259.093 131.681 259.093 127.75C259.093 123.484 264.077 120.807 269.393 120.975C274.791 121.142 279.941 124.237 281.27 130.092L293.48 128C290.573 116.709 281.935 110.519 269.559 110.352C257.266 110.268 247.216 116.207 247.216 128.335C247.216 139.794 256.103 142.722 260.754 144.06L276.286 148.66C280.938 150.082 282.101 152.257 282.101 154.682C282.101 159.701 276.286 162.377 270.721 162.377C264.077 162.377 258.346 158.53 256.684 151.588L244.89 153.344C246.717 165.556 256.684 173 269.974 173Z" fill="black"/>
<path d="M327.194 171.745H338.49V111.523H327.194V171.745Z" fill="black"/>
<path d="M374.197 171.745H384.746V135.779L402.105 171.745H406.092L423.451 135.779V171.745H434V111.523H423.867L404.099 151.504L384.33 111.523H374.197V171.745Z" fill="black"/>
<path d="M656.217 1.2456L638 61.0344H649.593L664.497 11.8747L679.651 61.0344H691.243L673.026 1.2456H656.217Z" fill="black"/>
<path d="M764.552 61.0344V1.2456H739.379C738.22 1.2456 735.984 1.32864 734.411 1.57776C723.729 3.23856 719.009 10.9613 719.009 21.0091C719.009 29.147 722.156 35.7487 728.946 38.8627L718.181 61.0344H730.933L740.746 40.7726H753.29V61.0344H764.552ZM730.354 21.0091C730.354 17.7706 731.513 13.4525 736.067 12.2069C737.226 11.8747 738.717 11.7917 739.876 11.7917H753.29V30.2266H739.876C738.717 30.2266 737.226 30.1435 736.067 29.8114C731.513 28.5658 730.354 24.2477 730.354 21.0091Z" fill="black"/>
<path d="M824.91 62.28C838.573 62.28 848.178 54.9725 851.987 43.3469L840.643 40.1914C838.407 47.4158 833.19 51.6509 824.91 51.6509C813.566 51.6509 807.852 43.596 807.852 31.14C807.852 18.684 813.566 10.6291 824.91 10.6291C833.19 10.6291 838.407 14.8642 840.643 22.0886L851.987 18.9331C848.178 7.30752 838.573 0 824.91 0C807.024 0 796.011 12.539 796.011 31.14C796.011 49.741 807.024 62.28 824.91 62.28Z" fill="black"/>
<path d="M898.117 61.0344H909.378V11.7917H928.175V1.2456H879.32V11.7917H898.117V61.0344Z" fill="black"/>
<path d="M958.842 61.0344H970.103V1.2456H958.842V61.0344Z" fill="black"/>
<path d="M1031.29 62.28C1044.95 62.28 1054.56 54.9725 1058.36 43.3469L1047.02 40.1914C1044.78 47.4158 1039.57 51.6509 1031.29 51.6509C1019.94 51.6509 1014.23 43.596 1014.23 31.14C1014.23 18.684 1019.94 10.6291 1031.29 10.6291C1039.57 10.6291 1044.78 14.8642 1047.02 22.0886L1058.36 18.9331C1054.56 7.30752 1044.95 0 1031.29 0C1013.4 0 1002.39 12.539 1002.39 31.14C1002.39 49.741 1013.4 62.28 1031.29 62.28Z" fill="black"/>
<path d="M665.491 173C678.74 173 687.6 164.115 687.6 150.828V132.892C687.6 119.605 678.74 110.72 665.491 110.72C652.242 110.72 643.382 119.605 643.382 132.892V150.828C643.382 164.115 652.242 173 665.491 173ZM654.892 151.659V131.978C654.892 125.999 659.529 121.349 665.491 121.349C671.453 121.349 676.09 125.999 676.09 131.978V151.659C676.09 157.638 671.453 162.288 665.491 162.288C659.529 162.288 654.892 157.638 654.892 151.659Z" fill="black"/>
<path d="M722.364 171.754H733.625V151.493H747.536C748.613 151.493 750.931 151.41 752.504 151.16C763.103 149.5 767.906 141.777 767.906 131.729C767.906 121.681 763.186 113.959 752.504 112.298C750.931 112.049 748.695 111.966 747.536 111.966H722.364V171.754ZM733.625 140.947V122.512H747.039C748.199 122.512 749.689 122.595 750.848 122.927C755.403 124.172 756.562 128.491 756.562 131.729C756.562 134.968 755.403 139.286 750.848 140.531C749.689 140.864 748.199 140.947 747.039 140.947H733.625Z" fill="black"/>
<path d="M799.404 122.512H848.59V111.966H799.404V122.512ZM799.404 171.754H848.59V161.208H799.404V171.754ZM799.404 147.092H848.59V136.545H799.404V147.092Z" fill="black"/>
<path d="M883.399 171.754H894.66V151.493H907.205L917.018 171.754H929.769L919.005 149.583C925.795 146.469 928.941 139.867 928.941 131.729C928.941 121.681 924.222 113.959 913.54 112.298C911.966 112.049 909.731 111.966 908.572 111.966H883.399V171.754ZM894.66 140.947V122.512H908.075C909.234 122.512 910.724 122.595 911.884 122.927C916.438 124.172 917.597 128.491 917.597 131.729C917.597 134.968 916.438 139.286 911.884 140.531C910.724 140.864 909.234 140.947 908.075 140.947H894.66Z" fill="black"/>
<path d="M974.891 111.966L956.674 171.754H968.267L983.172 122.595L998.325 171.754H1009.92L991.701 111.966H974.891Z" fill="black"/>
<path d="M1048.24 171.754H1059.5V122.512H1078.29V111.966H1029.44V122.512H1048.24V171.754Z" fill="black"/>
<path d="M1130.24 173C1143.49 173 1152.35 164.115 1152.35 150.828V132.892C1152.35 119.605 1143.49 110.72 1130.24 110.72C1116.99 110.72 1108.13 119.605 1108.13 132.892V150.828C1108.13 164.115 1116.99 173 1130.24 173ZM1119.64 151.659V131.978C1119.64 125.999 1124.28 121.349 1130.24 121.349C1136.2 121.349 1140.84 125.999 1140.84 131.978V151.659C1140.84 157.638 1136.2 162.288 1130.24 162.288C1124.28 162.288 1119.64 157.638 1119.64 151.659Z" fill="black"/>
<path d="M1231 171.754V111.966H1205.83C1204.67 111.966 1202.43 112.049 1200.86 112.298C1190.18 113.959 1185.46 121.681 1185.46 131.729C1185.46 139.867 1188.6 146.469 1195.39 149.583L1184.63 171.754H1197.38L1207.19 151.493H1219.74V171.754H1231ZM1196.8 131.729C1196.8 128.491 1197.96 124.172 1202.52 122.927C1203.67 122.595 1205.17 122.512 1206.32 122.512H1219.74V140.947H1206.32C1205.17 140.947 1203.67 140.864 1202.52 140.531C1197.96 139.286 1196.8 134.968 1196.8 131.729Z" fill="black"/>
<line x1="535.5" y1="6.55671e-08" x2="535.5" y2="173" stroke="#BBBBBB" stroke-width="3"/>
</svg>
